mtllib solve.mtl
v 1.0 1.0 -1.0
v 1.0 -1.0 -1.0
v 1.0 1.0 1.0
v 1.0 -1.0 1.0
v -1.0 1.0 -1.0
v -1.0 -1.0 -1.0
v -1.0 1.0 1.0
v -1.0 -1.0 1.0
vt 0.375 0.0
vt 0.625 0.0
vt 0.625 0.25
vt 0.375 0.25
vt 0.375 0.25
vt 0.625 0.25
vt 0.625 0.5
vt 0.375 0.5
vt 0.625 0.75
vt 0.375 0.75
vt 0.625 0.75
vt 0.625 1.0
vt 0.375 1.0
vt 0.125 0.5
vt 0.375 0.5
vt 0.375 0.75
vt 0.125 0.75
vt 0.625 0.5
vt 0.875 0.5
vt 0.875 0.75
vn 0.0 1.0 0.0
vn 0.0 0.0 1.0
vn -1.0 0.0 0.0
vn 0.0 -1.0 0.0
vn 1.0 0.0 0.0
vn 0.0 0.0 -1.0
usemtl Material
f 1/1/1 5/2/1 7/3/1 
f 1/1/1 7/3/1 3/4/1 
f 4/5/2 3/6/2 7/7/2 
f 4/5/2 7/7/2 8/8/2 
f 8/8/3 7/7/3 5/9/3 
f 8/8/3 5/9/3 6/10/3 
f 6/10/4 2/11/4 4/12/4 
f 6/10/4 4/12/4 8/13/4 
f 2/14/5 1/15/5 3/16/5 
f 2/14/5 3/16/5 4/17/5 
f 6/18/6 5/19/6 1/20/6 
f 6/18/6 1/20/6 2/11/6 
