mtllib solve1.mtl
v -2.553191 1.808243 -3.472339
v 3.446808 1.908242 -3.272338
v -2.553191 6.008245 -0.272342
v -2.553191 1.808244 -3.472339
v -2.553191 1.908244 -3.471118
v 3.446808 1.808244 2.927659
v 3.446808 6.008245 -0.272342
v -2.553191 1.908243 -3.272338
v -2.553191 5.808244 -0.272342
v -2.553191 6.008245 -0.272342
v 3.446808 1.908244 2.727662
v 3.446808 1.908243 -3.272338
v 3.446808 1.908243 2.927659
v 3.446808 1.808243 2.927659
v 3.446808 1.808243 2.927659
v 3.446808 1.908243 2.927659
v 3.446808 1.908244 -3.472339
v -2.553191 1.908242 -3.272342
v -2.553191 1.908244 2.727662
v 3.446808 1.908244 2.727662
v -2.553191 5.808244 -0.272342
v 3.44681 5.808245 -0.272338
v 3.446808 1.908243 2.927659
v -2.553191 6.008246 -0.272342
v -2.553191 1.908244 2.927659
v -2.553191 1.908244 2.927659
v 3.446809 1.808244 -3.473556
v 3.446808 1.908244 -3.472339
v -2.553191 1.808243 2.927659
v 3.446808 1.908242 -3.272335
v -2.553191 1.908242 -3.272338
v -2.553191 5.808244 -0.272342
v 3.04681 1.908244 2.727662
v -2.990585 3.099999 -2.965808
v -2.990585 3.1 -2.965808
v 2.609422 3.0 0.028211
v 2.609422 3.0 0.028211
v 3.04681 1.908244 2.727662
v 3.04681 5.808245 -0.272342
v 3.04681 1.908243 -3.272338
v 3.04681 1.908244 2.727662
v 3.04681 5.808245 -0.272342
v 3.04681 1.908243 -3.272338
v -2.15319 1.908244 2.727662
v -2.15319 5.808245 -0.272342
v -2.15319 1.908243 -3.272338
vt 0.0 0.0
vt 0.0 0.0
vt 0.0 0.0
vt 0.0 0.0
vt 0.0 0.0
vt 0.0 0.0
vt 0.0 0.0
vt 0.0 0.0
vt 0.0 0.0
vt 0.0 0.0
vt 0.0 0.0
vt 0.0 0.0
vt 0.0 0.0
vt 0.0 0.0
vt 0.0 0.0
vt 0.0 0.0
vt 0.0 0.0
vt 0.0 0.0
vt 0.0 0.0
vt 0.0 0.0
vt 0.0 0.0
vt 0.0 0.0
vt 0.0 0.0
vt 0.0 0.0
vt 0.0 0.0
vt 0.0 0.0
vt 0.0 0.0
vt 0.0 0.0
vt 0.0 0.0
vt 0.0 0.0
vt 0.0 0.0
vt 0.0 0.0
vn 0.0 -0.6097 -0.7926
vn -1.0 -0.0 -0.0
vn 1.0 0.0 0.0
vn -0.0002 0.0122 -0.9999
vn 0.0001 -0.6152 0.7884
vn 0.0 0.6153 0.7883
vn 0.0 0.0 -1.0
vn 0.0 -1.0 -0.0
vn 0.0 1.0 -0.0
vn 0.0 0.6097 -0.7926
vn 0.0 0.0 0.0
vn 0.0 0.0 1.0
vn 0.0 0.6097 0.7926
usemtl Roof
f 20/1/1 19/2/1 21/3/1 
f 30/21/2 22/4/2 7/11/2 
f 30/21/2 7/11/2 17/9/2 
f 19/2/9 11/22/9 30/21/9 
f 19/2/9 30/21/9 18/23/9 
f 19/2/9 18/23/9 8/20/9 
f 9/19/10 22/4/10 30/21/10 
f 9/19/10 30/21/10 8/20/10 
f 43/24/8 41/25/8 44/26/8 
f 43/24/8 44/26/8 46/27/8 
f 40/28/11 38/29/11 41/25/11 
f 40/28/11 41/25/11 43/24/11 
f 39/30/12 40/28/12 43/24/12 
f 39/30/12 43/24/12 42/31/12 
f 38/29/12 39/30/12 42/31/12 
f 38/29/12 42/31/12 41/25/12 
f 42/31/10 43/24/10 46/27/10 
f 42/31/10 46/27/10 45/32/10 
f 41/25/13 42/31/13 45/32/13 
f 41/25/13 45/32/13 44/26/13 
f 8/20/3 24/16/3 9/19/3 
f 8/20/3 5/12/3 24/16/3 
f 9/19/3 25/15/3 19/2/3 
f 5/12/5 17/9/5 7/11/5 
f 27/5/2 13/7/2 28/8/2 
f 27/5/2 28/8/2 17/9/2 
f 16/10/3 20/1/3 22/4/3 
f 16/10/3 22/4/3 7/11/3 
f 5/12/2 1/13/2 29/14/2 
f 5/12/2 29/14/2 25/15/2 
f 27/5/4 1/13/4 5/12/4 
f 27/5/4 5/12/4 28/8/4 
f 9/19/3 3/17/3 25/15/3 
f 5/12/5 7/11/5 24/16/5 
f 5/12/5 24/16/5 3/17/5 
f 24/16/6 25/15/6 13/7/6 
f 24/16/6 13/7/6 16/10/6 
f 24/16/6 16/10/6 7/11/6 
f 14/6/7 29/14/7 25/15/7 
f 14/6/7 25/15/7 16/10/7 
f 14/6/7 16/10/7 13/7/7 
f 6/18/8 29/14/8 1/13/8 
f 6/18/8 1/13/8 27/5/8 
f 27/5/2 14/6/2 13/7/2 
f 20/1/1 21/3/1 22/4/1 
usemtl Wood
f 39/30/3 38/29/3 40/28/3 
f 45/32/2 46/27/2 44/26/2 
